<svg width="252" height="60" viewBox="0 0 252 60" fill="none" xmlns="http://www.w3.org/2000/svg">
<path d="M4 28V24H0V0H8V24H20V0H28V24H24V28H4ZM36 28V0H44V24H60V28H36ZM76 28V4H68V0H92V4H84V28H76ZM100 28V24H108V4H100V0H124V4H116V24H124V28H100ZM128 28V0H136V4H140V8H144V4H148V0H156V28H148V12H144V20H140V12H136V28H128ZM160 28V8H164V4H168V0H180V4H184V8H188V28H180V20H168V28H160ZM168 16H180V8H176V4H172V8H168V16ZM204 28V4H196V0H220V4H212V28H204ZM224 28V0H252V4H232V12H248V16H232V24H252V28H224ZM4 60V56H8V52H12V48H16V44H12V40H8V36H4V32H12V36H16V40H20V44H24V48H20V52H16V56H12V60H4ZM36 60V56H40V52H44V48H48V44H44V40H40V36H36V32H44V36H48V40H52V44H56V48H52V52H48V56H44V60H36ZM68 60V56H72V52H76V48H80V44H76V40H72V36H68V32H76V36H80V40H84V44H88V48H84V52H80V56H76V60H68ZM128 60V32H152V36H156V48H152V52H136V60H128ZM136 48H148V36H136V48ZM164 60V56H160V36H164V32H184V36H188V56H184V60H164ZM168 56H180V36H168V56ZM192 60V32H200V36H204V40H208V44H212V32H220V60H212V52H208V48H204V44H200V60H192ZM232 60V56H228V52H224V40H228V36H232V32H252V36H236V40H232V52H236V56H244V48H240V44H252V60H232Z" fill="magenta"/>
</svg>
